<?xml version="1.0" standalone="no"?><!DOCTYPE svg PUBLIC "-//W3C//DTD SVG 1.1//EN" "http://www.w3.org/Graphics/SVG/1.1/DTD/svg11.dtd"><svg t="1698285077283" class="icon" viewBox="0 0 1577 1024" version="1.1" xmlns="http://www.w3.org/2000/svg" p-id="1313" xmlns:xlink="http://www.w3.org/1999/xlink" width="308.0078125" height="200"><path d="M1096.13574841 379.71035324c-37.01425286-11.64648806-56.12998508-7.71821878-94.97005361-11.96462219-60.03059024-6.54250424-83.95983462-30.0152947-94.09864115-90.3916832-5.67109259-33.72225349 1.02356269-83.07459091-13.47230292-113.62933108C865.87555686 105.47844601 801.00378949 79.33609234 735.84155295 94.24691651c-55.02343002 12.61472332-100.8071293 67.59665717-103.33837353 124.04477636-2.90470578 64.45680881 33.81907627 119.43874347 96.87886001 138.41615588 29.94613522 9.03225229 61.77341355 13.58295859 93.06124722 15.87905942 57.3748591 4.19107599 61.7872456 36.0875138 77.32050595 62.34052231 9.77917703 16.54299179 19.25405118 32.85084101 19.25405118 82.20317926 0 49.35233743-9.54403363 65.66018664-19.26788242 82.21701132-15.5194291 26.19768109-34.66282462 43.34927866-92.03768371 47.58185001-31.28783286 2.30993289-63.1704386 6.86063918-93.07507846 15.90672271-63.04595168 19.03273984-99.76973456 73.95934707-96.87886002 138.40232383 2.54507547 56.44811919 48.31494269 111.44388593 103.33837272 124.04477719 65.17606943 14.97998364 130.04783597-11.20386621 157.76702984-69.47780026 14.55119385-30.55474018 22.51838727-65.17606943 28.20331191-98.88449085 10.20796683-60.39022056 34.12337915-83.84917896 94.09864116-90.3916832 38.84006854-4.24640342 79.02183472 0 115.41365139-20.67874035 38.45277412-28.09265625 72.81129666-70.26622037 72.81129584-128.7199704 0-58.43991797-37.01425286-119.71538223-93.25489362-137.4202565z" fill="#F44250" p-id="1314"></path><path d="M480.18593082 654.10824438c-75.67450626 0-137.40642443-61.84257303-137.40642361-137.66923113 0-75.81282605 61.73191819-137.65539907 137.40642361-137.65539909 75.66067419 0 137.40642443 61.82874179 137.40642443 137.65539909 0 75.75749781-61.80107767 137.66923114-137.40642443 137.66923113zM227.04772167 933.87292524C151.49770233 933.69311007 89.94560012 871.60156159 90.12541528 795.71957605c0.17981515-75.75749781 62.16070798-137.4202565 137.90437373-137.17128103 75.60534678 0.17981515 137.1574498 62.27136365 136.90847515 138.15334835-0.17981515 75.68833831-62.14687591 137.35109702-137.89054248 137.17128187zM1248.05187051 933.87292524c-75.79899399 0.41495773-138.01502939-60.9988255-138.44381918-136.6318364-0.41495773-75.93731296 60.88816983-138.26400403 136.38286175-138.69279382 75.79899399-0.41495773 138.00119733 60.9988255 138.42998712 136.63183638 0.41495773 75.86815347-60.87433777 138.26400403-136.38286092 138.69279383z" fill="#121212" p-id="1315"></path></svg>